<?xml version="1.0" encoding="UTF-8"?>
<!DOCTYPE svg PUBLIC "-//W3C//DTD SVG 1.1//EN" "http://www.w3.org/Graphics/SVG/1.1/DTD/svg11.dtd">
<svg xmlns="http://www.w3.org/2000/svg" version="1.1" width="64px" height="64px" style="shape-rendering:geometricPrecision; text-rendering:geometricPrecision; image-rendering:optimizeQuality; fill-rule:evenodd; clip-rule:evenodd" xmlns:xlink="http://www.w3.org/1999/xlink">
<g><path style="opacity:1" fill="#e39a02" d="M 32.5,-0.5 C 35.1667,-0.5 37.8333,-0.5 40.5,-0.5C 41.7653,0.479345 43.0986,1.47934 44.5,2.5C 46.1831,1.40794 48.0164,0.741271 50,0.5C 53.135,1.65366 56.3017,2.65366 59.5,3.5C 60.0356,6.69805 59.369,9.36472 57.5,11.5C 54.7201,11.1931 52.2201,10.1931 50,8.5C 46.4715,9.60166 42.9715,9.76833 39.5,9C 40.3734,10.045 41.3734,10.8783 42.5,11.5C 43.2341,12.7079 43.5674,14.0413 43.5,15.5C 40.8478,15.4095 38.5145,16.0762 36.5,17.5C 35.3982,14.1926 33.5648,11.1926 31,8.5C 30.5065,6.86586 30.3398,5.19919 30.5,3.5C 30.7329,1.93819 31.3995,0.60486 32.5,-0.5 Z"/></g>
<g><path style="opacity:1" fill="#1a191a" d="M 57.5,11.5 C 56.7387,12.3909 55.7387,13.0576 54.5,13.5C 50.7121,11.7442 46.7121,11.0775 42.5,11.5C 41.3734,10.8783 40.3734,10.045 39.5,9C 42.9715,9.76833 46.4715,9.60166 50,8.5C 52.2201,10.1931 54.7201,11.1931 57.5,11.5 Z"/></g>
<g><path style="opacity:1" fill="#e39b02" d="M 31.5,19.5 C 30.5589,21.7721 29.2255,23.7721 27.5,25.5C 23.16,23.0787 18.66,21.0787 14,19.5C 11.8586,20.1206 10.3586,21.454 9.5,23.5C 9.42282,26.0124 10.4228,28.0124 12.5,29.5C 17.4804,31.9991 22.3137,34.6658 27,37.5C 30.4209,42.0707 33.5876,46.7374 36.5,51.5C 36.5,52.1667 36.8333,52.5 37.5,52.5C 37.5,53.1667 37.8333,53.5 38.5,53.5C 39.8946,54.8146 40.8946,54.4812 41.5,52.5C 43.9496,52.702 46.283,52.3686 48.5,51.5C 49.559,53.726 49.3923,56.0594 48,58.5C 47.3292,59.2524 46.4959,59.5858 45.5,59.5C 38.5535,62.4984 32.7201,60.8318 28,54.5C 26.5454,50.8037 24.712,47.3037 22.5,44C 16.2166,40.2791 10.0499,36.4457 4,32.5C 2.09614,29.0769 1.2628,25.4102 1.5,21.5C 3.85738,15.8089 8.19072,12.8089 14.5,12.5C 20.9627,13.0935 26.6294,15.4269 31.5,19.5 Z"/></g>
<g><path style="opacity:1" fill="#1f1c1a" d="M 30.5,3.5 C 30.3398,5.19919 30.5065,6.86586 31,8.5C 33.5648,11.1926 35.3982,14.1926 36.5,17.5C 36.5,18.8333 35.8333,19.5 34.5,19.5C 33.1911,16.2223 31.3578,13.2223 29,10.5C 28.8333,9.33333 28.6667,8.16667 28.5,7C 28.6083,5.31887 29.2749,4.1522 30.5,3.5 Z"/></g>
<g><path style="opacity:1" fill="#e4ab2f" d="M 43.5,15.5 C 43.6641,18.1873 43.4974,20.854 43,23.5C 42.6174,24.056 42.1174,24.3893 41.5,24.5C 40.1283,25.5116 38.795,26.5116 37.5,27.5C 37.5,27.8333 37.5,28.1667 37.5,28.5C 37.1667,28.5 36.8333,28.5 36.5,28.5C 33.4841,27.8173 30.4841,26.8173 27.5,25.5C 29.2255,23.7721 30.5589,21.7721 31.5,19.5C 32.5,19.5 33.5,19.5 34.5,19.5C 35.8333,19.5 36.5,18.8333 36.5,17.5C 38.5145,16.0762 40.8478,15.4095 43.5,15.5 Z"/></g>
<g><path style="opacity:1" fill="#1a191a" d="M 27.5,25.5 C 30.4841,26.8173 33.4841,27.8173 36.5,28.5C 35.8333,28.5 35.5,28.8333 35.5,29.5C 28.5635,29.018 22.2301,26.8513 16.5,23C 14.1152,22.4436 11.7819,22.6103 9.5,23.5C 10.3586,21.454 11.8586,20.1206 14,19.5C 18.66,21.0787 23.16,23.0787 27.5,25.5 Z"/></g>
<g><path style="opacity:1" fill="#161418" d="M 41.5,24.5 C 41.5,25.1667 41.5,25.8333 41.5,26.5C 40.8333,26.5 40.5,26.8333 40.5,27.5C 39.8333,27.5 39.1667,27.5 38.5,27.5C 38.1667,27.5 37.8333,27.5 37.5,27.5C 38.795,26.5116 40.1283,25.5116 41.5,24.5 Z"/></g>
<g><path style="opacity:1" fill="#f0bc39" d="M 60.5,29.5 C 58.8042,29.6854 57.4709,30.5187 56.5,32C 56.7284,32.3988 57.0618,32.5654 57.5,32.5C 58.1667,33.8333 58.8333,33.8333 59.5,32.5C 59.3284,31.5084 59.6618,30.8417 60.5,30.5C 61.5981,31.397 61.5981,32.2303 60.5,33C 61.5266,33.5133 62.5266,34.0133 63.5,34.5C 63.5,34.8333 63.5,35.1667 63.5,35.5C 63.1667,35.5 62.8333,35.5 62.5,35.5C 59.6712,36.9464 56.6712,37.7798 53.5,38C 52.1772,38.8159 51.5106,39.9826 51.5,41.5C 47.8127,43.19 47.146,42.69 49.5,40C 49.1667,39.8333 48.8333,39.6667 48.5,39.5C 46.9539,40.684 45.2873,41.684 43.5,42.5C 44.548,43.548 45.548,44.548 46.5,45.5C 47.1667,47.5 47.8333,49.5 48.5,51.5C 46.283,52.3686 43.9496,52.702 41.5,52.5C 38.1339,48.3965 36.1339,43.7299 35.5,38.5C 35.5,37.8333 35.5,37.1667 35.5,36.5C 36.4778,36.189 37.1445,35.5223 37.5,34.5C 36.3112,33.5713 34.9778,33.238 33.5,33.5C 33.427,31.9731 34.0937,30.9731 35.5,30.5C 36.3864,31.7759 37.3864,31.7759 38.5,30.5C 37.675,29.6143 36.675,29.281 35.5,29.5C 35.5,28.8333 35.8333,28.5 36.5,28.5C 36.8333,28.5 37.1667,28.5 37.5,28.5C 38.1667,28.5 38.5,28.1667 38.5,27.5C 39.1667,27.5 39.8333,27.5 40.5,27.5C 41.1667,27.5 41.5,27.1667 41.5,26.5C 44.2304,25.0195 46.7304,25.3528 49,27.5C 51.0921,25.0935 53.0921,25.0935 55,27.5C 59.9947,21.7142 61.8281,22.3809 60.5,29.5 Z"/></g>
<g><path style="opacity:1" fill="#3a3422" d="M 35.5,29.5 C 36.675,29.281 37.675,29.6143 38.5,30.5C 37.3864,31.7759 36.3864,31.7759 35.5,30.5C 35.5,30.1667 35.5,29.8333 35.5,29.5 Z"/></g>
<g><path style="opacity:1" fill="#13131b" d="M 60.5,29.5 C 60.5,29.8333 60.5,30.1667 60.5,30.5C 59.6618,30.8417 59.3284,31.5084 59.5,32.5C 58.8333,32.5 58.1667,32.5 57.5,32.5C 57.0618,32.5654 56.7284,32.3988 56.5,32C 57.4709,30.5187 58.8042,29.6854 60.5,29.5 Z"/></g>
<g><path style="opacity:1" fill="#201d1b" d="M 33.5,33.5 C 34.9778,33.238 36.3112,33.5713 37.5,34.5C 37.1445,35.5223 36.4778,36.189 35.5,36.5C 34.2825,35.8386 32.9492,35.1719 31.5,34.5C 31.9569,33.7025 32.6236,33.3691 33.5,33.5 Z"/></g>
<g><path style="opacity:1" fill="#1d1b1a" d="M 1.5,21.5 C 1.2628,25.4102 2.09614,29.0769 4,32.5C 10.0499,36.4457 16.2166,40.2791 22.5,44C 24.712,47.3037 26.5454,50.8037 28,54.5C 32.7201,60.8318 38.5535,62.4984 45.5,59.5C 44.5,60.8333 43.5,62.1667 42.5,63.5C 39.8333,63.5 37.1667,63.5 34.5,63.5C 32.5654,62.19 30.5654,60.8567 28.5,59.5C 25.7666,53.9358 22.4333,48.7692 18.5,44C 10.6118,41.4153 4.27849,36.9153 -0.5,30.5C -0.5,28.1667 -0.5,25.8333 -0.5,23.5C 0.166667,22.8333 0.833333,22.1667 1.5,21.5 Z"/></g>
<g><path style="opacity:1" fill="#221e1c" d="M 62.5,35.5 C 61.6109,37.736 60.2776,39.736 58.5,41.5C 57.2519,40.9598 56.0852,40.2931 55,39.5C 53.8873,40.305 52.7206,40.9717 51.5,41.5C 51.5106,39.9826 52.1772,38.8159 53.5,38C 56.6712,37.7798 59.6712,36.9464 62.5,35.5 Z"/></g>
<g><path style="opacity:1" fill="#1e1c1b" d="M 51.5,41.5 C 49.9934,42.9755 48.3268,44.3088 46.5,45.5C 45.548,44.548 44.548,43.548 43.5,42.5C 45.2873,41.684 46.9539,40.684 48.5,39.5C 48.8333,39.6667 49.1667,39.8333 49.5,40C 47.146,42.69 47.8127,43.19 51.5,41.5 Z"/></g>
<g><path style="opacity:1" fill="#1c1a1a" d="M 35.5,38.5 C 36.1339,43.7299 38.1339,48.3965 41.5,52.5C 40.8946,54.4812 39.8946,54.8146 38.5,53.5C 37.8333,53.5 37.5,53.1667 37.5,52.5C 36.8333,52.5 36.5,52.1667 36.5,51.5C 34.9288,47.0844 34.5955,42.751 35.5,38.5 Z"/></g>
</svg>
